<svg width="800" height="400" viewBox="0 0 800 400" xmlns="http://www.w3.org/2000/svg"><defs><pattern id="satori_pattern_id_1" x="0" y="0" width="0.125" height="0.25" patternUnits="objectBoundingBox"><radialGradient id="satori_radial_id_1"><stop offset="0" stop-color="lightgray"/><stop offset="0.02" stop-color="lightgray"/><stop offset="0" stop-color="transparent"/><stop offset="1" stop-color="transparent"/></radialGradient><mask id="satori_mask_id_1"><rect x="0" y="0" width="100" height="100" fill="#fff"/></mask><rect x="0" y="0" width="100" height="100" fill="transparent"/><circle cx="75" cy="75" width="100" height="100" r="106.06601717798213" fill="url(#satori_radial_id_1)" mask="url(#satori_mask_id_1)"/></pattern><pattern id="satori_pattern_id_0" x="0" y="0" width="0.125" height="0.25" patternUnits="objectBoundingBox"><radialGradient id="satori_radial_id_0"><stop offset="0" stop-color="lightgray"/><stop offset="0.02" stop-color="lightgray"/><stop offset="0" stop-color="transparent"/><stop offset="1" stop-color="transparent"/></radialGradient><mask id="satori_mask_id_0"><rect x="0" y="0" width="100" height="100" fill="#fff"/></mask><rect x="0" y="0" width="100" height="100" fill="transparent"/><circle cx="25" cy="25" width="100" height="100" r="106.06601717798213" fill="url(#satori_radial_id_0)" mask="url(#satori_mask_id_0)"/></pattern></defs><mask id="satori_om-id"><rect x="0" y="0" width="800" height="400" fill="#fff"/></mask><rect x="0" y="0" width="800" height="400" fill="white"/><rect x="0" y="0" width="800" height="400" fill="url(#satori_pattern_id_1)"/><rect x="0" y="0" width="800" height="400" fill="url(#satori_pattern_id_0)"/><mask id="satori_om-id-0"><rect x="356" y="71" width="88" height="88" fill="#fff"/></mask><clipPath id="satori_cp-id-0-0"><rect x="356" y="71" width="88" height="88"/></clipPath><mask id="satori_om-id-0-0"><rect x="356" y="71" width="88" height="88" fill="#fff"/></mask><image x="356" y="71" width="88" height="88" href="data:image/svg+xml;utf8,%3Csvg  fill=%22none%22 xmlns=%22http://www.w3.org/2000/svg%22 width=%2288%22 height=%2288%22 viewBox=%220 0 88 88%22%3E%3Crect x=%220.291239%22 y=%220.354105%22 width=%2286.7891%22 height=%2286.7891%22 fill=%22%23CCCCCC%22%3E%3C/rect%3E%3Crect x=%220.291239%22 y=%220.354105%22 width=%2286.7891%22 height=%2286.7891%22 stroke=%22black%22 stroke-width=%220.582477%22%3E%3C/rect%3E%3Crect x=%2214.8533%22 y=%2214.916%22 width=%2257.6652%22 height=%2257.6652%22 fill=%22white%22 stroke=%22black%22 stroke-width=%220.582477%22%3E%3C/rect%3E%3Crect x=%2229.4148%22 y=%2229.478%22 width=%2228.5414%22 height=%2228.5414%22 fill=%22%23262626%22 stroke=%22black%22 stroke-width=%220.582477%22%3E%3C/rect%3E%3C/svg%3E" preserveAspectRatio="none" clip-path="url(#satori_cp-id-0-0)" mask="url(#satori_om-id-0-0)"/><mask id="satori_om-id-0-0-0"><rect x="356" y="71" width="0" height="88" fill="#fff"/></mask><mask id="satori_om-id-0-0-1"><rect x="356" y="71" width="0" height="88" fill="#fff"/></mask><mask id="satori_om-id-0-0-2"><rect x="356" y="71" width="0" height="88" fill="#fff"/></mask><mask id="satori_om-id-0-0-3"><rect x="356" y="71" width="0" height="88" fill="#fff"/></mask><mask id="satori_om-id-1"><rect x="121" y="189" width="558" height="72" fill="#fff"/></mask><mask id="satori_om-id-1-0"><rect x="121" y="189" width="558" height="72" fill="#fff"/></mask><path fill="black" d="M131.3 215.5L122.4 215.5L122.4 210.5L146.3 210.5L146.3 215.5L137.4 215.5L137.4 239.5L131.3 239.5L131.3 215.5ZM153.4 240.0L153.4 240.0Q151.3 240.0 149.7 239.2Q148.1 238.5 147.1 237.1Q146.2 235.6 146.2 233.5L146.2 233.5Q146.2 231.6 146.8 230.4Q147.5 229.2 148.7 228.4Q149.8 227.7 151.3 227.3Q152.7 226.9 154.4 226.7L154.4 226.7Q156.3 226.5 157.4 226.4Q158.6 226.2 159.1 225.8Q159.7 225.5 159.7 224.8L159.7 224.8L159.7 224.7Q159.7 223.3 158.8 222.6Q158.0 221.9 156.4 221.9L156.4 221.9Q154.8 221.9 153.8 222.6Q152.8 223.3 152.5 224.4L152.5 224.4L146.9 223.9Q147.4 221.9 148.6 220.5Q149.9 219.0 151.8 218.2Q153.8 217.4 156.4 217.4L156.4 217.4Q158.3 217.4 159.9 217.9Q161.6 218.3 162.9 219.2Q164.2 220.1 164.9 221.5Q165.7 222.9 165.7 224.8L165.7 224.8L165.7 239.5L160.0 239.5L160.0 236.5L159.8 236.5Q159.3 237.5 158.4 238.3Q157.5 239.1 156.3 239.5Q155.0 240.0 153.4 240.0ZM155.1 235.8L155.1 235.8Q156.5 235.8 157.5 235.2Q158.5 234.7 159.1 233.8Q159.7 232.9 159.7 231.7L159.7 231.7L159.7 229.4Q159.4 229.6 158.9 229.8Q158.4 229.9 157.8 230.0Q157.2 230.2 156.6 230.2Q156.0 230.3 155.5 230.4L155.5 230.4Q154.4 230.6 153.6 230.9Q152.8 231.3 152.4 231.8Q152.0 232.4 152.0 233.3L152.0 233.3Q152.0 234.5 152.9 235.1Q153.8 235.8 155.1 235.8ZM176.5 239.5L170.4 239.5L170.4 217.7L176.2 217.7L176.2 221.6L176.4 221.6Q177.1 219.7 178.7 218.6Q180.3 217.4 182.5 217.4L182.5 217.4Q184.8 217.4 186.3 218.6Q187.9 219.7 188.4 221.6L188.4 221.6L188.7 221.6Q189.3 219.7 191.1 218.6Q192.8 217.4 195.2 217.4L195.2 217.4Q198.3 217.4 200.2 219.4Q202.1 221.3 202.1 224.9L202.1 224.9L202.1 239.5L196.1 239.5L196.1 226.1Q196.1 224.2 195.1 223.3Q194.1 222.4 192.7 222.4L192.7 222.4Q191.0 222.4 190.1 223.5Q189.2 224.5 189.2 226.2L189.2 226.2L189.2 239.5L183.3 239.5L183.3 225.9Q183.3 224.3 182.4 223.4Q181.5 222.4 180.0 222.4L180.0 222.4Q179.0 222.4 178.2 222.9Q177.4 223.4 176.9 224.3Q176.5 225.2 176.5 226.4L176.5 226.4L176.5 239.5ZM213.0 239.5L207.0 239.5L207.0 210.5L213.0 210.5L213.0 221.4L213.2 221.4Q213.6 220.5 214.4 219.6Q215.1 218.7 216.4 218.1Q217.6 217.4 219.4 217.4L219.4 217.4Q221.8 217.4 223.8 218.7Q225.9 219.9 227.1 222.4Q228.3 224.9 228.3 228.7L228.3 228.7Q228.3 232.3 227.1 234.8Q225.9 237.3 223.9 238.6Q221.9 239.9 219.4 239.9L219.4 239.9Q217.7 239.9 216.4 239.3Q215.2 238.7 214.4 237.8Q213.6 237.0 213.2 236.1L213.2 236.1L213.0 236.1L213.0 239.5ZM212.9 228.6L212.9 228.6Q212.9 230.6 213.5 232.0Q214.0 233.5 215.0 234.3Q216.0 235.1 217.5 235.1L217.5 235.1Q219.0 235.1 220.0 234.3Q221.0 233.5 221.6 232.0Q222.1 230.5 222.1 228.6L222.1 228.6Q222.1 226.7 221.6 225.3Q221.0 223.9 220.0 223.1Q219.0 222.3 217.5 222.3L217.5 222.3Q216.0 222.3 215.0 223.0Q214.0 223.8 213.5 225.3Q212.9 226.7 212.9 228.6ZM246.3 230.3L246.3 230.3L246.3 217.7L252.3 217.7L252.3 239.5L246.5 239.5L246.5 235.6L246.3 235.6Q245.6 237.5 243.8 238.7Q242.1 239.8 239.7 239.8L239.7 239.8Q237.5 239.8 235.8 238.8Q234.2 237.8 233.2 236.0Q232.3 234.2 232.3 231.6L232.3 231.6L232.3 217.7L238.3 217.7L238.3 230.5Q238.4 232.5 239.4 233.6Q240.4 234.7 242.1 234.7L242.1 234.7Q243.2 234.7 244.2 234.2Q245.1 233.7 245.7 232.7Q246.3 231.7 246.3 230.3ZM263.2 239.5L257.2 239.5L257.2 217.7L263.0 217.7L263.0 221.5L263.3 221.5Q263.9 219.5 265.3 218.5Q266.7 217.4 268.5 217.4L268.5 217.4Q269.0 217.4 269.5 217.5Q270.0 217.5 270.4 217.6L270.4 217.6L270.4 223.0Q270.0 222.9 269.2 222.8Q268.5 222.7 267.8 222.7L267.8 222.7Q266.5 222.7 265.5 223.2Q264.4 223.8 263.8 224.8Q263.2 225.9 263.2 227.2L263.2 227.2L263.2 239.5Z M292.0 239.5L285.9 239.5L285.9 210.5L292.0 210.5L292.0 222.5L304.5 222.5L304.5 210.5L310.6 210.5L310.6 239.5L304.5 239.5L304.5 227.5L292.0 227.5L292.0 239.5ZM325.4 240.0L325.4 240.0Q322.1 240.0 319.7 238.6Q317.3 237.1 316.0 234.6Q314.7 232.1 314.7 228.7L314.7 228.7Q314.7 225.3 316.0 222.8Q317.3 220.3 319.7 218.9Q322.1 217.4 325.4 217.4L325.4 217.4Q328.8 217.4 331.2 218.9Q333.6 220.3 334.9 222.8Q336.2 225.3 336.2 228.7L336.2 228.7Q336.2 232.1 334.9 234.6Q333.6 237.1 331.2 238.6Q328.8 240.0 325.4 240.0ZM325.5 235.3L325.5 235.3Q327.0 235.3 328.0 234.4Q329.0 233.6 329.5 232.1Q330.0 230.6 330.0 228.7L330.0 228.7Q330.0 226.8 329.5 225.3Q329.0 223.8 328.0 222.9Q327.0 222.1 325.5 222.1L325.5 222.1Q324.0 222.1 322.9 222.9Q321.9 223.8 321.4 225.3Q320.9 226.8 320.9 228.7L320.9 228.7Q320.9 230.6 321.4 232.1Q321.9 233.6 322.9 234.4Q324.0 235.3 325.5 235.3ZM354.1 230.3L354.1 230.3L354.1 217.7L360.2 217.7L360.2 239.5L354.4 239.5L354.4 235.6L354.1 235.6Q353.4 237.5 351.7 238.7Q350.0 239.8 347.5 239.8L347.5 239.8Q345.3 239.8 343.7 238.8Q342.0 237.8 341.1 236.0Q340.1 234.2 340.1 231.6L340.1 231.6L340.1 217.7L346.2 217.7L346.2 230.5Q346.2 232.5 347.2 233.6Q348.2 234.7 350.0 234.7L350.0 234.7Q351.1 234.7 352.0 234.2Q353.0 233.7 353.5 232.7Q354.1 231.7 354.1 230.3ZM383.2 223.9L383.2 223.9L377.6 224.3Q377.5 223.6 377.0 223.0Q376.5 222.4 375.8 222.1Q375.0 221.7 374.0 221.7L374.0 221.7Q372.6 221.7 371.6 222.3Q370.6 222.9 370.6 223.9L370.6 223.9Q370.6 224.7 371.3 225.2Q371.9 225.8 373.4 226.1L373.4 226.1L377.3 226.9Q380.5 227.5 382.1 229.0Q383.7 230.4 383.7 232.8L383.7 232.8Q383.7 234.9 382.4 236.5Q381.1 238.2 379.0 239.1Q376.8 240.0 373.9 240.0L373.9 240.0Q369.6 240.0 367.0 238.2Q364.5 236.3 364.0 233.2L364.0 233.2L370.0 232.9Q370.3 234.2 371.3 234.9Q372.3 235.6 374.0 235.6L374.0 235.6Q375.5 235.6 376.5 235.0Q377.5 234.4 377.5 233.4L377.5 233.4Q377.5 232.6 376.8 232.0Q376.1 231.5 374.7 231.2L374.7 231.2L370.9 230.5Q367.7 229.8 366.2 228.3Q364.6 226.7 364.6 224.2L364.6 224.2Q364.6 222.1 365.8 220.6Q366.9 219.1 369.0 218.3Q371.1 217.4 373.9 217.4L373.9 217.4Q378.0 217.4 380.4 219.2Q382.8 220.9 383.2 223.9ZM397.4 240.0L397.4 240.0Q394.1 240.0 391.6 238.6Q389.2 237.2 387.9 234.7Q386.6 232.2 386.6 228.7L386.6 228.7Q386.6 225.4 387.9 222.8Q389.2 220.3 391.6 218.9Q394.0 217.4 397.2 217.4L397.2 217.4Q399.3 217.4 401.2 218.1Q403.1 218.8 404.5 220.2Q405.9 221.6 406.7 223.7Q407.4 225.7 407.4 228.5L407.4 228.5L407.4 230.2L389.0 230.2L389.0 226.4L401.7 226.4Q401.7 225.1 401.2 224.1Q400.6 223.1 399.6 222.5Q398.6 222.0 397.3 222.0L397.3 222.0Q395.9 222.0 394.8 222.6Q393.8 223.2 393.2 224.3Q392.6 225.3 392.6 226.6L392.6 226.6L392.6 230.2Q392.6 231.8 393.2 233.0Q393.8 234.2 394.9 234.8Q396.0 235.5 397.5 235.5L397.5 235.5Q398.5 235.5 399.4 235.2Q400.2 234.9 400.8 234.3Q401.4 233.8 401.7 232.9L401.7 232.9L407.3 233.3Q406.9 235.3 405.6 236.8Q404.3 238.3 402.2 239.1Q400.1 240.0 397.4 240.0Z M421.0 225.2L434.3 225.2L434.3 230L421.0 230L421.0 225.2Z "/><mask id="satori_om-id-1-0-1"><rect x="447" y="189" width="232" height="72" fill="#fff"/></mask><path fill="#960019" d="M457.3 215.5L448.4 215.5L448.4 210.5L472.3 210.5L472.3 215.5L463.4 215.5L463.4 239.5L457.3 239.5L457.3 215.5ZM482.9 240.0L482.9 240.0Q479.5 240.0 477.1 238.6Q474.7 237.2 473.4 234.7Q472.1 232.2 472.1 228.7L472.1 228.7Q472.1 225.4 473.4 222.8Q474.7 220.3 477.1 218.9Q479.5 217.4 482.7 217.4L482.7 217.4Q484.8 217.4 486.7 218.1Q488.6 218.8 490.0 220.2Q491.4 221.6 492.1 223.7Q492.9 225.7 492.9 228.5L492.9 228.5L492.9 230.2L474.5 230.2L474.5 226.4L487.2 226.4Q487.2 225.1 486.7 224.1Q486.1 223.1 485.1 222.5Q484.1 222.0 482.8 222.0L482.8 222.0Q481.4 222.0 480.3 222.6Q479.3 223.2 478.7 224.3Q478.1 225.3 478.1 226.6L478.1 226.6L478.1 230.2Q478.1 231.8 478.7 233.0Q479.3 234.2 480.4 234.8Q481.5 235.5 483.0 235.5L483.0 235.5Q484.0 235.5 484.9 235.2Q485.7 234.9 486.3 234.3Q486.9 233.8 487.2 232.9L487.2 232.9L492.8 233.3Q492.4 235.3 491.1 236.8Q489.7 238.3 487.7 239.1Q485.6 240.0 482.9 240.0ZM506.7 240.0L506.7 240.0Q503.4 240.0 501.0 238.5Q498.6 237.1 497.3 234.6Q496.0 232.0 496.0 228.7L496.0 228.7Q496.0 225.4 497.3 222.8Q498.6 220.3 501.0 218.9Q503.4 217.4 506.7 217.4L506.7 217.4Q509.6 217.4 511.7 218.5Q513.8 219.5 515.1 221.4Q516.3 223.3 516.5 225.8L516.5 225.8L510.8 225.8Q510.5 224.2 509.5 223.2Q508.5 222.2 506.8 222.2L506.8 222.2Q505.4 222.2 504.4 222.9Q503.3 223.7 502.7 225.1Q502.1 226.6 502.1 228.6L502.1 228.6Q502.1 230.7 502.7 232.2Q503.3 233.7 504.3 234.4Q505.4 235.2 506.8 235.2L506.8 235.2Q507.8 235.2 508.7 234.8Q509.5 234.3 510.0 233.5Q510.6 232.7 510.8 231.5L510.8 231.5L516.5 231.5Q516.3 234.0 515.1 235.9Q513.9 237.8 511.8 238.9Q509.6 240.0 506.7 240.0ZM526.4 226.9L526.4 226.9L526.4 239.5L520.4 239.5L520.4 210.5L526.2 210.5L526.2 221.6L526.5 221.6Q527.2 219.6 528.9 218.5Q530.5 217.4 533.0 217.4L533.0 217.4Q535.3 217.4 537.0 218.4Q538.7 219.4 539.6 221.3Q540.6 223.1 540.6 225.7L540.6 225.7L540.6 239.5L534.5 239.5L534.5 226.7Q534.5 224.7 533.5 223.6Q532.5 222.5 530.6 222.5L530.6 222.5Q529.4 222.5 528.4 223.0Q527.5 223.5 527.0 224.5Q526.4 225.5 526.4 226.9ZM553.4 239.9L553.4 239.9Q550.9 239.9 548.9 238.6Q546.9 237.3 545.7 234.8Q544.5 232.3 544.5 228.7L544.5 228.7Q544.5 224.9 545.7 222.4Q546.9 219.9 549.0 218.7Q551.0 217.4 553.4 217.4L553.4 217.4Q555.2 217.4 556.4 218.1Q557.7 218.7 558.4 219.6Q559.2 220.5 559.6 221.4L559.6 221.4L559.8 221.4L559.8 210.5L565.8 210.5L565.8 239.5L559.8 239.5L559.8 236.1L559.6 236.1Q559.1 237.0 558.4 237.8Q557.6 238.7 556.4 239.3Q555.1 239.9 553.4 239.9ZM555.3 235.1L555.3 235.1Q556.8 235.1 557.8 234.3Q558.8 233.5 559.3 232.0Q559.9 230.6 559.9 228.6L559.9 228.6Q559.9 226.7 559.3 225.3Q558.8 223.8 557.8 223.0Q556.8 222.3 555.3 222.3L555.3 222.3Q553.8 222.3 552.8 223.1Q551.8 223.9 551.2 225.3Q550.7 226.7 550.7 228.6L550.7 228.6Q550.7 230.5 551.2 232.0Q551.8 233.5 552.8 234.3Q553.8 235.1 555.3 235.1ZM580.7 240.0L580.7 240.0Q577.3 240.0 574.9 238.6Q572.5 237.2 571.2 234.7Q569.9 232.2 569.9 228.7L569.9 228.7Q569.9 225.4 571.2 222.8Q572.5 220.3 574.9 218.9Q577.2 217.4 580.5 217.4L580.5 217.4Q582.6 217.4 584.5 218.1Q586.3 218.8 587.7 220.2Q589.1 221.6 589.9 223.7Q590.7 225.7 590.7 228.5L590.7 228.5L590.7 230.2L572.3 230.2L572.3 226.4L585.0 226.4Q585.0 225.1 584.4 224.1Q583.9 223.1 582.9 222.5Q581.9 222.0 580.6 222.0L580.6 222.0Q579.2 222.0 578.1 222.6Q577.1 223.2 576.5 224.3Q575.9 225.3 575.8 226.6L575.8 226.6L575.8 230.2Q575.8 231.8 576.5 233.0Q577.1 234.2 578.2 234.8Q579.3 235.5 580.8 235.5L580.8 235.5Q581.8 235.5 582.6 235.2Q583.5 234.9 584.1 234.3Q584.7 233.8 585.0 232.9L585.0 232.9L590.6 233.3Q590.2 235.3 588.8 236.8Q587.5 238.3 585.5 239.1Q583.4 240.0 580.7 240.0ZM612.8 223.9L612.8 223.9L607.3 224.3Q607.1 223.6 606.7 223.0Q606.2 222.4 605.4 222.1Q604.7 221.7 603.6 221.7L603.6 221.7Q602.2 221.7 601.2 222.3Q600.3 222.9 600.3 223.9L600.3 223.9Q600.3 224.7 600.9 225.2Q601.5 225.8 603.1 226.1L603.1 226.1L607 226.9Q610.2 227.5 611.7 229.0Q613.3 230.4 613.3 232.8L613.3 232.8Q613.3 234.9 612.0 236.5Q610.8 238.2 608.6 239.1Q606.4 240.0 603.6 240.0L603.6 240.0Q599.3 240.0 596.7 238.2Q594.1 236.3 593.7 233.2L593.7 233.2L599.6 232.9Q599.9 234.2 600.9 234.9Q602.0 235.6 603.6 235.6L603.6 235.6Q605.2 235.6 606.2 235.0Q607.1 234.4 607.2 233.4L607.2 233.4Q607.1 232.6 606.5 232.0Q605.8 231.5 604.4 231.2L604.4 231.2L600.6 230.5Q597.4 229.8 595.8 228.3Q594.3 226.7 594.3 224.2L594.3 224.2Q594.3 222.1 595.4 220.6Q596.6 219.1 598.6 218.3Q600.7 217.4 603.5 217.4L603.5 217.4Q607.7 217.4 610.0 219.2Q612.4 220.9 612.8 223.9ZM623.2 239.5L617.1 239.5L617.1 217.7L623.2 217.7L623.2 239.5ZM620.2 214.9L620.2 214.9Q618.8 214.9 617.9 214.0Q616.9 213.1 616.9 211.8L616.9 211.8Q616.9 210.6 617.9 209.7Q618.8 208.8 620.2 208.8L620.2 208.8Q621.5 208.8 622.5 209.7Q623.4 210.6 623.4 211.8L623.4 211.8Q623.4 213.1 622.5 214.0Q621.5 214.9 620.2 214.9ZM637.8 248.2L637.8 248.2Q634.9 248.2 632.8 247.4Q630.7 246.6 629.5 245.2Q628.2 243.8 627.9 242.1L627.9 242.1L633.5 241.3Q633.7 242.0 634.3 242.6Q634.8 243.1 635.7 243.5Q636.7 243.8 638.0 243.8L638.0 243.8Q640.0 243.8 641.2 242.9Q642.5 241.9 642.5 239.7L642.5 239.7L642.5 235.7L642.3 235.7Q641.9 236.6 641.1 237.4Q640.3 238.2 639.0 238.7Q637.8 239.2 636.0 239.2L636.0 239.2Q633.6 239.2 631.6 238.1Q629.6 236.9 628.4 234.6Q627.2 232.2 627.2 228.6L627.2 228.6Q627.2 224.9 628.4 222.4Q629.6 219.9 631.6 218.7Q633.6 217.4 636.0 217.4L636.0 217.4Q637.9 217.4 639.1 218.1Q640.3 218.7 641.1 219.6Q641.9 220.5 642.3 221.4L642.3 221.4L642.5 221.4L642.5 217.7L648.5 217.7L648.5 239.8Q648.5 242.5 647.1 244.4Q645.8 246.3 643.4 247.2Q641.0 248.2 637.8 248.2ZM638.0 234.7L638.0 234.7Q639.4 234.7 640.4 234.0Q641.5 233.2 642.0 231.9Q642.6 230.5 642.6 228.6L642.6 228.6Q642.6 226.6 642.0 225.2Q641.5 223.8 640.5 223.0Q639.4 222.3 638.0 222.3L638.0 222.3Q636.5 222.3 635.5 223.1Q634.4 223.9 633.9 225.3Q633.4 226.7 633.4 228.6L633.4 228.6Q633.4 230.5 633.9 231.8Q634.4 233.2 635.5 233.9Q636.5 234.7 638.0 234.7ZM659.4 226.9L659.4 226.9L659.4 239.5L653.3 239.5L653.3 217.7L659.1 217.7L659.1 221.6L659.4 221.6Q660.1 219.7 661.8 218.6Q663.5 217.4 665.9 217.4L665.9 217.4Q668.2 217.4 669.9 218.4Q671.6 219.4 672.5 221.3Q673.4 223.1 673.4 225.7L673.4 225.7L673.4 239.5L667.4 239.5L667.4 226.7Q667.4 224.7 666.4 223.6Q665.3 222.5 663.5 222.5L663.5 222.5Q662.3 222.5 661.4 223.0Q660.4 223.5 659.9 224.5Q659.4 225.5 659.4 226.9Z "/><mask id="satori_om-id-2"><rect x="178" y="277" width="444" height="36" fill="#fff"/></mask><path fill="black" d="M183.3 306.1L180.6 306.1L180.6 284.2L188.0 284.2Q190.6 284.2 192.2 285.1Q193.9 286.0 194.6 287.5Q195.4 289.0 195.4 290.9L195.4 290.9Q195.4 292.9 194.6 294.4Q193.9 295.8 192.2 296.7Q190.6 297.5 188.1 297.5L188.1 297.5L182.1 297.5L182.1 295.2L188.0 295.2Q189.7 295.2 190.8 294.6Q191.9 294.1 192.3 293.2Q192.8 292.2 192.8 290.9L192.8 290.9Q192.8 289.6 192.3 288.6Q191.8 287.7 190.8 287.1Q189.7 286.6 187.9 286.6L187.9 286.6L183.3 286.6L183.3 306.1ZM187.9 296.3L190.9 296.3L196.3 306.1L193.2 306.1L187.9 296.3ZM206.2 306.4L206.2 306.4Q203.8 306.4 202.1 305.4Q200.4 304.3 199.5 302.4Q198.5 300.5 198.5 298.0L198.5 298.0Q198.5 295.5 199.5 293.6Q200.4 291.6 202.0 290.6Q203.7 289.5 205.9 289.5L205.9 289.5Q207.2 289.5 208.4 289.9Q209.7 290.3 210.7 291.3Q211.7 292.2 212.3 293.8Q212.9 295.4 212.9 297.7L212.9 297.7L212.9 298.7L200.3 298.7L200.3 296.6L210.4 296.6Q210.4 295.2 209.8 294.1Q209.3 293.0 208.3 292.4Q207.3 291.7 205.9 291.7L205.9 291.7Q204.4 291.7 203.3 292.5Q202.2 293.2 201.6 294.4Q201.1 295.6 201.1 296.9L201.1 296.9L201.1 298.4Q201.1 300.2 201.7 301.5Q202.3 302.8 203.5 303.5Q204.6 304.1 206.2 304.1L206.2 304.1Q207.2 304.1 208.0 303.9Q208.8 303.6 209.4 303.0Q209.9 302.4 210.3 301.6L210.3 301.6L212.7 302.3Q212.3 303.5 211.4 304.4Q210.5 305.4 209.2 305.9Q207.8 306.4 206.2 306.4ZM219.3 306.1L216.8 306.1L216.8 289.7L219.2 289.7L219.2 292.3L219.4 292.3Q219.9 290.9 221.1 290.2Q222.2 289.5 223.8 289.5L223.8 289.5Q225.4 289.5 226.5 290.2Q227.6 290.9 228.2 292.3L228.2 292.3L228.4 292.3Q229.0 291.0 230.3 290.2Q231.5 289.5 233.3 289.5L233.3 289.5Q235.5 289.5 236.9 290.9Q238.3 292.2 238.3 295.1L238.3 295.1L238.3 306.1L235.7 306.1L235.7 295.1Q235.7 293.3 234.8 292.5Q233.8 291.7 232.4 291.7L232.4 291.7Q230.7 291.7 229.7 292.8Q228.8 293.8 228.8 295.4L228.8 295.4L228.8 306.1L226.2 306.1L226.2 294.9Q226.2 293.5 225.3 292.6Q224.4 291.7 223.0 291.7L223.0 291.7Q222.0 291.7 221.2 292.3Q220.3 292.8 219.8 293.7Q219.3 294.6 219.3 295.8L219.3 295.8L219.3 306.1ZM249.5 306.4L249.5 306.4Q247.3 306.4 245.6 305.3Q244.0 304.3 243.0 302.4Q242.1 300.5 242.1 298.0L242.1 298.0Q242.1 295.4 243.0 293.5Q244.0 291.6 245.6 290.5Q247.3 289.5 249.5 289.5L249.5 289.5Q251.7 289.5 253.4 290.5Q255.1 291.6 256.0 293.5Q256.9 295.4 256.9 298.0L256.9 298.0Q256.9 300.5 256.0 302.4Q255.1 304.3 253.4 305.3Q251.7 306.4 249.5 306.4ZM249.5 304.1L249.5 304.1Q251.2 304.1 252.3 303.3Q253.4 302.4 253.9 301.0Q254.4 299.6 254.4 298.0L254.4 298.0Q254.4 296.3 253.9 294.9Q253.4 293.5 252.3 292.6Q251.2 291.7 249.5 291.7L249.5 291.7Q247.8 291.7 246.7 292.6Q245.6 293.5 245.1 294.9Q244.6 296.3 244.6 298.0L244.6 298.0Q244.6 299.6 245.1 301.0Q245.6 302.4 246.7 303.3Q247.8 304.1 249.5 304.1ZM263.3 296.2L263.3 296.2L263.3 306.1L260.8 306.1L260.8 289.7L263.2 289.7L263.2 292.3L263.4 292.3Q264.0 291.0 265.1 290.2Q266.3 289.5 268.2 289.5L268.2 289.5Q269.8 289.5 271.1 290.2Q272.3 290.8 273.0 292.2Q273.7 293.6 273.7 295.7L273.7 295.7L273.7 306.1L271.2 306.1L271.2 295.8Q271.2 293.9 270.2 292.8Q269.2 291.7 267.4 291.7L267.4 291.7Q266.2 291.7 265.3 292.3Q264.4 292.8 263.8 293.8Q263.3 294.8 263.3 296.2ZM276.9 289.7L285.4 289.7L285.4 291.8L276.9 291.8L276.9 289.7ZM279.4 302.1L279.4 285.8L281.9 285.8L281.9 301.4Q281.9 302.4 282.2 303.0Q282.6 303.5 283.1 303.7Q283.6 303.8 284.1 303.8L284.1 303.8Q284.5 303.8 284.8 303.8Q285.1 303.8 285.2 303.7L285.2 303.7L285.7 306.0Q285.5 306.1 285.0 306.2Q284.6 306.3 283.9 306.3L283.9 306.3Q282.8 306.3 281.8 305.8Q280.8 305.4 280.1 304.4Q279.4 303.5 279.4 302.1L279.4 302.1Z M300.3 306.1L297.8 306.1L297.8 289.7L300.3 289.7L300.3 306.1ZM299.1 287.0L299.1 287.0Q298.4 287.0 297.8 286.5Q297.3 286.0 297.3 285.3L297.3 285.3Q297.3 284.6 297.8 284.1Q298.4 283.6 299.1 283.6L299.1 283.6Q299.8 283.6 300.4 284.1Q300.9 284.6 300.9 285.3L300.9 285.3Q300.9 286.0 300.4 286.5Q299.8 287.0 299.1 287.0Z M319.6 306.1L317.1 306.1L312.1 289.7L314.7 289.7L318.3 302.2L318.5 302.2L321.9 289.7L324.6 289.7L328.1 302.2L328.3 302.2L331.8 289.7L334.4 289.7L329.4 306.1L327.0 306.1L323.4 293.5L323.1 293.5L319.6 306.1ZM339.4 312.2L339.4 312.2Q338.7 312.2 338.2 312.1Q337.7 312.0 337.5 311.9L337.5 311.9L338.2 309.7Q339.1 309.9 339.8 309.9Q340.5 309.8 341.1 309.2Q341.6 308.7 342.1 307.4L342.1 307.4L342.5 306.1L336.5 289.7L339.2 289.7L343.7 302.7L343.9 302.7L348.4 289.7L351.1 289.7L344.2 308.4Q343.7 309.7 343.0 310.6Q342.3 311.4 341.4 311.8Q340.5 312.2 339.4 312.2ZM357.0 312.2L354.5 312.2L354.5 289.7L356.9 289.7L356.9 292.3L357.2 292.3Q357.5 291.9 358.0 291.2Q358.5 290.5 359.4 290.0Q360.3 289.5 361.9 289.5L361.9 289.5Q364.0 289.5 365.6 290.5Q367.1 291.6 368.0 293.4Q368.9 295.3 368.9 297.9L368.9 297.9Q368.9 300.5 368.0 302.4Q367.1 304.3 365.6 305.4Q364.0 306.4 362.0 306.4L362.0 306.4Q360.4 306.4 359.4 305.9Q358.5 305.3 358.0 304.7Q357.5 304.0 357.2 303.5L357.2 303.5L357.0 303.5L357.0 312.2ZM356.9 297.9L356.9 297.9Q356.9 299.7 357.5 301.1Q358.0 302.6 359.1 303.4Q360.1 304.1 361.6 304.1L361.6 304.1Q363.2 304.1 364.3 303.3Q365.3 302.5 365.9 301.1Q366.4 299.6 366.4 297.9L366.4 297.9Q366.4 296.2 365.9 294.8Q365.3 293.4 364.3 292.6Q363.2 291.7 361.6 291.7L361.6 291.7Q360.1 291.7 359.0 292.5Q358 293.3 357.5 294.7Q356.9 296.0 356.9 297.9ZM379.4 306.4L379.4 306.4Q377.2 306.4 375.5 305.3Q373.8 304.3 372.9 302.4Q372.0 300.5 372.0 298.0L372.0 298.0Q372.0 295.4 372.9 293.5Q373.8 291.6 375.5 290.5Q377.2 289.5 379.4 289.5L379.4 289.5Q381.6 289.5 383.3 290.5Q384.9 291.6 385.9 293.5Q386.8 295.4 386.8 298.0L386.8 298.0Q386.8 300.5 385.9 302.4Q384.9 304.3 383.3 305.3Q381.6 306.4 379.4 306.4ZM379.4 304.1L379.4 304.1Q381.1 304.1 382.2 303.3Q383.2 302.4 383.8 301.0Q384.3 299.6 384.3 298.0L384.3 298.0Q384.3 296.3 383.8 294.9Q383.2 293.5 382.2 292.6Q381.1 291.7 379.4 291.7L379.4 291.7Q377.7 291.7 376.6 292.6Q375.5 293.5 375.0 294.9Q374.5 296.3 374.5 298.0L374.5 298.0Q374.5 299.6 375.0 301.0Q375.5 302.4 376.6 303.3Q377.7 304.1 379.4 304.1ZM402.2 293.4L402.2 293.4L400.0 294.0Q399.8 293.4 399.4 292.9Q398.9 292.4 398.2 292.0Q397.5 291.7 396.4 291.7L396.4 291.7Q394.9 291.7 393.9 292.3Q392.9 293.0 392.9 294.1L392.9 294.1Q392.9 295.0 393.6 295.6Q394.3 296.1 395.8 296.5L395.8 296.5L398.2 297.1Q400.4 297.6 401.5 298.7Q402.5 299.8 402.5 301.5L402.5 301.5Q402.5 302.9 401.7 304.0Q400.9 305.1 399.5 305.8Q398.0 306.4 396.1 306.4L396.1 306.4Q393.6 306.4 392.0 305.3Q390.4 304.2 389.9 302.1L389.9 302.1L392.3 301.5Q392.6 302.9 393.6 303.5Q394.6 304.2 396.1 304.2L396.1 304.2Q397.9 304.2 398.9 303.4Q399.9 302.7 399.9 301.6L399.9 301.6Q399.9 300.8 399.3 300.2Q398.7 299.6 397.5 299.3L397.5 299.3L394.8 298.7Q392.5 298.2 391.5 297.0Q390.4 295.9 390.4 294.2L390.4 294.2Q390.4 292.8 391.2 291.8Q392.0 290.7 393.4 290.1Q394.7 289.5 396.4 289.5L396.4 289.5Q398.9 289.5 400.3 290.6Q401.6 291.6 402.2 293.4ZM411.1 306.4L411.1 306.4Q409.6 306.4 408.3 305.9Q407.0 305.3 406.3 304.1Q405.6 303.0 405.6 301.4L405.6 301.4Q405.6 300.0 406.1 299.1Q406.7 298.3 407.6 297.8Q408.5 297.3 409.6 297.0Q410.8 296.8 411.9 296.6L411.9 296.6Q413.4 296.4 414.3 296.3Q415.3 296.2 415.7 296.0Q416.1 295.7 416.1 295.1L416.1 295.1L416.1 295.0Q416.1 293.4 415.3 292.6Q414.4 291.7 412.7 291.7L412.7 291.7Q410.9 291.7 409.9 292.5Q408.8 293.3 408.4 294.2L408.4 294.2L406.0 293.3Q406.7 291.8 407.7 291.0Q408.8 290.2 410.1 289.8Q411.4 289.5 412.6 289.5L412.6 289.5Q413.4 289.5 414.4 289.7Q415.4 289.9 416.4 290.4Q417.4 291.0 418 292.2Q418.6 293.3 418.6 295.3L418.6 295.3L418.6 306.1L416.1 306.1L416.1 303.8L416.0 303.8Q415.7 304.4 415.1 305.0Q414.5 305.6 413.6 306.0Q412.6 306.4 411.1 306.4ZM411.5 304.2L411.5 304.2Q413.0 304.2 414.0 303.6Q415.1 303.0 415.6 302.1Q416.1 301.2 416.1 300.1L416.1 300.1L416.1 297.8Q416.0 298.0 415.4 298.2Q414.9 298.3 414.2 298.5Q413.5 298.6 412.8 298.6Q412.2 298.7 411.8 298.8L411.8 298.8Q410.8 298.9 410.0 299.2Q409.1 299.5 408.6 300.0Q408.1 300.6 408.1 301.5L408.1 301.5Q408.1 302.9 409.0 303.5Q410.0 304.2 411.5 304.2ZM435.6 306.1L422.8 306.1L422.8 304.1L432.1 292.2L432.1 292.0L423.1 292.0L423.1 289.7L435.3 289.7L435.3 291.7L426.3 303.5L426.3 303.7L435.6 303.7L435.6 306.1ZM429.0 287.0L429.0 287.0Q428.3 287.0 427.8 286.5Q427.2 286.0 427.2 285.3L427.2 285.3Q427.2 284.6 427.8 284.1Q428.3 283.6 429.0 283.6L429.0 283.6Q429.8 283.6 430.3 284.1Q430.8 284.6 430.8 285.3L430.8 285.3Q430.8 286.0 430.3 286.5Q429.8 287.0 429.0 287.0ZM445.9 306.4L445.9 306.4Q443.5 306.4 441.8 305.4Q440.1 304.3 439.2 302.4Q438.2 300.5 438.2 298.0L438.2 298.0Q438.2 295.5 439.2 293.6Q440.1 291.6 441.7 290.6Q443.4 289.5 445.6 289.5L445.6 289.5Q446.9 289.5 448.1 289.9Q449.4 290.3 450.4 291.3Q451.4 292.2 452.0 293.8Q452.6 295.4 452.6 297.7L452.6 297.7L452.6 298.7L440.0 298.7L440.0 296.6L450.1 296.6Q450.1 295.2 449.5 294.1Q449.0 293.0 448.0 292.4Q447.0 291.7 445.6 291.7L445.6 291.7Q444.1 291.7 443.0 292.5Q441.9 293.2 441.3 294.4Q440.8 295.6 440.8 296.9L440.8 296.9L440.8 298.4Q440.8 300.2 441.4 301.5Q442.0 302.8 443.2 303.5Q444.3 304.1 445.9 304.1L445.9 304.1Q446.9 304.1 447.7 303.9Q448.5 303.6 449.1 303.0Q449.6 302.4 450.0 301.6L450.0 301.6L452.4 302.3Q452.0 303.5 451.1 304.4Q450.2 305.4 448.9 305.9Q447.5 306.4 445.9 306.4ZM459.0 296.2L459.0 296.2L459.0 306.1L456.5 306.1L456.5 289.7L458.9 289.7L458.9 292.3L459.1 292.3Q459.7 291.0 460.9 290.2Q462.0 289.5 463.9 289.5L463.9 289.5Q465.6 289.5 466.8 290.2Q468.0 290.8 468.7 292.2Q469.4 293.6 469.4 295.7L469.4 295.7L469.4 306.1L466.9 306.1L466.9 295.8Q466.9 293.9 465.9 292.8Q464.9 291.7 463.2 291.7L463.2 291.7Q462.0 291.7 461.0 292.3Q460.1 292.8 459.5 293.8Q459.0 294.8 459.0 296.2ZM476.6 306.1L474.0 306.1L474.0 289.7L476.6 289.7L476.6 306.1ZM475.3 287.0L475.3 287.0Q474.6 287.0 474.1 286.5Q473.5 286.0 473.5 285.3L473.5 285.3Q473.5 284.6 474.1 284.1Q474.6 283.6 475.3 283.6L475.3 283.6Q476.1 283.6 476.6 284.1Q477.1 284.6 477.1 285.3L477.1 285.3Q477.1 286.0 476.6 286.5Q476.1 287.0 475.3 287.0ZM488.0 306.4L488.0 306.4Q485.6 306.4 483.9 305.4Q482.2 304.3 481.3 302.4Q480.4 300.5 480.4 298.0L480.4 298.0Q480.4 295.5 481.3 293.6Q482.2 291.6 483.9 290.6Q485.5 289.5 487.8 289.5L487.8 289.5Q489.0 289.5 490.3 289.9Q491.5 290.3 492.6 291.3Q493.6 292.2 494.2 293.8Q494.8 295.4 494.8 297.7L494.8 297.7L494.8 298.7L482.2 298.7L482.2 296.6L492.2 296.6Q492.2 295.2 491.7 294.1Q491.1 293.0 490.1 292.4Q489.1 291.7 487.8 291.7L487.8 291.7Q486.3 291.7 485.2 292.5Q484.1 293.2 483.5 294.4Q482.9 295.6 482.9 296.9L482.9 296.9L482.9 298.4Q482.9 300.2 483.5 301.5Q484.2 302.8 485.3 303.5Q486.5 304.1 488.0 304.1L488.0 304.1Q489.0 304.1 489.8 303.9Q490.6 303.6 491.2 303.0Q491.8 302.4 492.1 301.6L492.1 301.6L494.5 302.3Q494.2 303.5 493.2 304.4Q492.3 305.4 491.0 305.9Q489.7 306.4 488.0 306.4Z M505.2 295.2L512.4 292.4L512.4 294.3L505.2 297.0L505.2 295.2ZM507.5 284.2L510.0 284.2L510.0 306.1L507.5 306.1L507.5 284.2ZM519.5 306.4L519.5 306.4Q517.9 306.4 516.6 305.9Q515.4 305.3 514.6 304.1Q513.9 303.0 513.9 301.4L513.9 301.4Q513.9 300.0 514.4 299.1Q515.0 298.3 515.9 297.8Q516.8 297.3 518.0 297.0Q519.1 296.8 520.2 296.6L520.2 296.6Q521.7 296.4 522.7 296.3Q523.6 296.2 524.0 296.0Q524.4 295.7 524.4 295.1L524.4 295.1L524.4 295.0Q524.4 293.4 523.6 292.6Q522.7 291.7 521.0 291.7L521.0 291.7Q519.2 291.7 518.2 292.5Q517.2 293.3 516.7 294.2L516.7 294.2L514.3 293.3Q515.0 291.8 516.1 291.0Q517.1 290.2 518.4 289.8Q519.7 289.5 520.9 289.5L520.9 289.5Q521.7 289.5 522.7 289.7Q523.8 289.9 524.7 290.4Q525.7 291.0 526.3 292.2Q527.0 293.3 527.0 295.3L527.0 295.3L527.0 306.1L524.4 306.1L524.4 303.8L524.3 303.8Q524.1 304.4 523.5 305.0Q522.9 305.6 521.9 306.0Q520.9 306.4 519.5 306.4ZM519.8 304.2L519.8 304.2Q521.3 304.2 522.4 303.6Q523.4 303.0 523.9 302.1Q524.4 301.2 524.4 300.1L524.4 300.1L524.4 297.8Q524.3 298.0 523.8 298.2Q523.2 298.3 522.5 298.5Q521.8 298.6 521.2 298.6Q520.5 298.7 520.1 298.8L520.1 298.8Q519.1 298.9 518.3 299.2Q517.4 299.5 516.9 300.0Q516.4 300.6 516.4 301.5L516.4 301.5Q516.4 302.9 517.4 303.5Q518.3 304.2 519.8 304.2ZM543.9 306.1L531.1 306.1L531.1 304.1L540.4 292.2L540.4 292.0L531.4 292.0L531.4 289.7L543.6 289.7L543.6 291.7L534.6 303.5L534.6 303.7L543.9 303.7L543.9 306.1ZM550.3 306.1L547.8 306.1L547.8 289.7L550.3 289.7L550.3 306.1ZM549.1 287.0L549.1 287.0Q548.3 287.0 547.8 286.5Q547.3 286.0 547.3 285.3L547.3 285.3Q547.3 284.6 547.8 284.1Q548.3 283.6 549.1 283.6L549.1 283.6Q549.8 283.6 550.3 284.1Q550.9 284.6 550.9 285.3L550.9 285.3Q550.9 286.0 550.3 286.5Q549.8 287.0 549.1 287.0ZM561.8 306.4L561.8 306.4Q559.4 306.4 557.7 305.4Q556.0 304.3 555.1 302.4Q554.2 300.5 554.2 298.0L554.2 298.0Q554.2 295.5 555.1 293.6Q556.0 291.6 557.7 290.6Q559.3 289.5 561.5 289.5L561.5 289.5Q562.8 289.5 564.0 289.9Q565.3 290.3 566.3 291.3Q567.3 292.2 567.9 293.8Q568.6 295.4 568.6 297.7L568.6 297.7L568.6 298.7L555.9 298.7L555.9 296.6L566.0 296.6Q566.0 295.2 565.4 294.1Q564.9 293.0 563.9 292.4Q562.9 291.7 561.5 291.7L561.5 291.7Q560.0 291.7 558.9 292.5Q557.8 293.2 557.3 294.4Q556.7 295.6 556.7 296.9L556.7 296.9L556.7 298.4Q556.7 300.2 557.3 301.5Q558.0 302.8 559.1 303.5Q560.3 304.1 561.8 304.1L561.8 304.1Q562.8 304.1 563.6 303.9Q564.4 303.6 565.0 303.0Q565.5 302.4 565.9 301.6L565.9 301.6L568.3 302.3Q567.9 303.5 567.0 304.4Q566.1 305.4 564.8 305.9Q563.4 306.4 561.8 306.4ZM574.9 296.2L574.9 296.2L574.9 306.1L572.4 306.1L572.4 289.7L574.8 289.7L574.8 292.3L575.0 292.3Q575.6 291.0 576.8 290.2Q578.0 289.5 579.8 289.5L579.8 289.5Q581.5 289.5 582.7 290.2Q584.0 290.8 584.7 292.2Q585.3 293.6 585.3 295.7L585.3 295.7L585.3 306.1L582.8 306.1L582.8 295.8Q582.8 293.9 581.8 292.8Q580.8 291.7 579.1 291.7L579.1 291.7Q577.9 291.7 576.9 292.3Q576.0 292.8 575.4 293.8Q574.9 294.8 574.9 296.2ZM596.8 306.4L596.8 306.4Q594.4 306.4 592.7 305.4Q591.0 304.3 590.1 302.4Q589.2 300.5 589.2 298.0L589.2 298.0Q589.2 295.5 590.1 293.6Q591.0 291.6 592.7 290.6Q594.3 289.5 596.6 289.5L596.6 289.5Q597.8 289.5 599.1 289.9Q600.3 290.3 601.3 291.3Q602.4 292.2 603.0 293.8Q603.6 295.4 603.6 297.7L603.6 297.7L603.6 298.7L591.0 298.7L591.0 296.6L601.0 296.6Q601.0 295.2 600.5 294.1Q599.9 293.0 598.9 292.4Q597.9 291.7 596.6 291.7L596.6 291.7Q595.0 291.7 594.0 292.5Q592.9 293.2 592.3 294.4Q591.7 295.6 591.7 296.9L591.7 296.9L591.7 298.4Q591.7 300.2 592.3 301.5Q593.0 302.8 594.1 303.5Q595.3 304.1 596.8 304.1L596.8 304.1Q597.8 304.1 598.6 303.9Q599.4 303.6 600.0 303.0Q600.6 302.4 600.9 301.6L600.9 301.6L603.3 302.3Q602.9 303.5 602.0 304.4Q601.1 305.4 599.8 305.9Q598.5 306.4 596.8 306.4ZM612.7 297.4L609.8 300.1L609.7 297.0L610.2 297.0L617.4 289.7L620.5 289.7L612.9 297.4L612.7 297.4ZM609.9 306.1L607.4 306.1L607.4 284.2L609.9 284.2L609.9 306.1ZM621.0 306.1L617.8 306.1L611.4 298.0L613.2 296.2L621.0 306.1Z "/></svg>